<?xml version="1.0" encoding="utf-8"?>
<!-- Generator: Adobe Illustrator 15.0.0, SVG Export Plug-In . SVG Version: 6.00 Build 0)  -->
<!DOCTYPE svg PUBLIC "-//W3C//DTD SVG 1.1//EN" "http://www.w3.org/Graphics/SVG/1.1/DTD/svg11.dtd">
<svg version="1.1" xmlns="http://www.w3.org/2000/svg" xmlns:xlink="http://www.w3.org/1999/xlink" x="0px" y="0px" width="612px"
	 height="792px" viewBox="0 0 612 792" enable-background="new 0 0 612 792" xml:space="preserve">
<g id="Typo">
	<g>
		<path d="M487.766,228.871l-0.532-0.532c-6.387-11.178-17.032-18.629-28.742-21.823c-12.241-3.193-25.016-1.597-36.193,4.791l0,0
			c-11.71,6.387-19.161,17.032-22.354,29.274c-3.193,11.71-1.597,25.016,4.79,36.194v0.532
			c6.387,11.177,17.032,18.629,28.742,21.822c11.709,3.194,25.016,2.129,36.193-4.79l0.532-0.532
			c11.178-6.387,18.629-17.032,21.822-28.742C495.75,253.355,494.153,240.048,487.766,228.871L487.766,228.871z M220.04,265.064
			L220.04,265.064c27.678,4.791,52.693,18.097,71.854,37.258l0,0c3.194,3.193,5.855,6.387,8.517,9.581l47.903-27.678
			c-6.388-19.161-6.92-39.387-1.598-58.548c6.92-25.548,23.42-48.436,47.903-62.274l1.064-0.532
			c24.484-13.839,52.162-16.5,77.178-10.113c25.549,6.919,48.436,23.419,62.807,47.903l0,0
			c14.371,24.484,17.032,52.694,10.113,78.242c-6.92,25.548-23.42,48.436-47.903,62.274l-6.388,3.726h-0.532
			c-22.887,10.645-47.903,12.774-70.79,6.387c-19.161-4.79-36.193-15.435-50.032-30.338l-47.371,27.677
			c5.322,14.371,8.517,30.339,8.517,46.307c0,16.5-3.194,32.468-8.517,46.839l47.371,27.145
			c13.839-15.436,30.871-25.548,50.032-30.338c25.548-6.92,53.758-4.259,78.242,10.112l1.597,0.532l0,0
			c23.951,14.371,39.919,36.726,46.307,61.742c6.919,25.016,3.726,53.226-10.113,77.71l-1.064,1.597l0,0l0,0
			c-14.371,23.951-36.726,39.919-61.742,46.839c-25.548,6.919-53.758,3.726-78.242-10.113l0,0
			c-24.483-14.371-40.983-37.258-47.902-62.274c-5.323-19.161-4.791-39.387,1.597-58.548L300.944,478.5
			c-2.661,3.193-5.854,6.387-8.517,9.581l0,0c-19.161,19.161-44.177,32.468-71.854,36.726v55.354
			c19.693,4.258,37.79,13.839,51.629,27.678l0,0l0,0c18.629,18.629,30.339,44.178,30.339,72.919c0,28.21-11.71,53.758-30.339,72.388
			v0.532l0,0c-18.629,18.629-44.709,30.338-72.919,30.338s-54.29-11.709-72.92-30.338l0,0v-0.532
			c-18.629-18.63-30.338-44.178-30.338-72.388c0-28.209,11.709-54.29,30.338-72.919l0,0l0,0
			c13.839-13.839,31.403-23.952,51.63-27.678v-54.29c-27.678-4.258-52.694-17.564-71.855-36.726l0,0
			C82.186,465.193,67.282,432.193,67.282,396s14.903-69.193,38.854-93.145l0,0c19.161-19.162,44.178-32.468,71.855-37.258v-55.354
			c-19.694-4.258-37.259-14.371-51.63-28.21l0,0l0,0c-18.629-18.629-30.338-44.177-30.338-72.919
			c0-28.209,11.709-54.29,30.338-72.919l0,0l0,0c18.63-18.629,44.71-30.338,72.92-30.338s54.29,11.709,72.919,30.338l0,0l0,0
			c18.629,18.629,30.339,44.71,30.339,72.919c0,28.21-11.71,53.758-30.339,72.919l0,0c-13.839,13.839-31.403,23.952-51.629,28.21
			v54.822H220.04z M247.718,346.5L247.718,346.5c-12.774-12.774-29.807-20.226-48.968-20.226s-36.193,7.983-48.968,20.226
			c-12.242,12.242-20.226,29.807-20.226,48.968s7.451,36.726,20.226,48.968s29.807,20.226,48.968,20.226s36.193-7.983,48.968-20.226
			c12.241-12.774,20.226-29.807,20.226-48.968C267.411,376.307,259.959,359.274,247.718,346.5L247.718,346.5z M458.491,584.951
			L458.491,584.951c11.71-3.193,22.355-10.645,29.274-22.354L488.83,561l0,0c5.854-10.646,6.92-23.419,3.726-34.597
			c-3.193-11.71-10.645-22.354-22.354-29.274l-0.532-0.532c-11.178-5.854-23.952-7.451-35.661-4.258
			c-11.71,3.193-22.355,10.645-29.274,22.354c-6.387,11.178-7.983,24.484-4.79,36.193c3.193,11.71,10.645,22.355,22.354,29.274l0,0
			C434.008,586.549,446.781,588.146,458.491,584.951L458.491,584.951z M198.75,729.726L198.75,729.726
			c13.307,0,25.016-5.322,34.064-13.839l0,0c8.516-8.516,13.839-20.226,13.839-33.532s-5.323-25.016-13.839-34.064l0,0
			c-8.517-8.516-20.758-13.839-34.064-13.839s-25.017,5.323-33.532,13.839l0,0c-8.517,8.517-13.839,20.758-13.839,34.064
			s5.322,25.017,13.839,33.532l0,0C173.201,723.871,185.444,729.726,198.75,729.726L198.75,729.726z M232.282,75.581L232.282,75.581
			c-8.517-8.516-20.758-13.838-34.064-13.838s-25.017,5.322-33.532,13.838l0,0c-8.517,8.516-13.839,20.758-13.839,34.064
			c0,13.307,5.322,25.016,13.839,33.532l0,0c8.516,8.516,20.226,13.839,33.532,13.839s25.016-5.323,34.064-13.839l0,0
			c8.516-8.516,13.839-20.226,13.839-33.532C246.121,96.339,240.798,84.097,232.282,75.581L232.282,75.581z"/>
	</g>
</g>
<g id="Layer_2">
	<rect x="373" y="1" fill="#F76C41" stroke="#FCFAFA" stroke-miterlimit="10" width="240" height="49"/>
	
		<rect x="361" y="1" transform="matrix(0.7071 0.7071 -0.7071 0.7071 130.9416 -265.1211)" fill="#FFFFFF" stroke="#FFFFFF" stroke-miterlimit="10" width="49" height="49"/>
	<text transform="matrix(1 0 0 1 452.5002 38.5)" fill="#050505" font-family="'HYtbrB'" font-size="30">HUB-PoP</text>
</g>
</svg>
